<?xml version="1.0" encoding="iso-8859-1"?>

<!DOCTYPE svg PUBLIC "-//W3C//DTD SVG 1.1//EN" "http://www.w3.org/Graphics/SVG/1.1/DTD/svg11.dtd">
<!-- Uploaded to: SVG Repo, www.svgrepo.com, Generator: SVG Repo Mixer Tools -->
<svg version="1.1" id="_x34_" xmlns="http://www.w3.org/2000/svg" xmlns:xlink="http://www.w3.org/1999/xlink" 
	 viewBox="0 0 512 512"  xml:space="preserve">
<g>
	<path style="fill:#CBB482;" d="M437.476,443.859H74.5c-40.97,0-74.49-33.521-74.49-74.49V148.201
		c0-40.969,33.521-74.49,74.49-74.49h362.976c40.97,0,74.49,33.521,74.49,74.49v221.168
		C511.966,410.339,478.446,443.859,437.476,443.859z"/>
	<path style="fill:#CBB482;" d="M205.517,258.785H74.5c-40.97,0-74.49-33.52-74.49-74.49V74.49C0.01,33.521,33.53,0,74.5,0h131.017
		c40.97,0,74.49,33.521,74.49,74.49v109.805C280.007,225.265,246.487,258.785,205.517,258.785z"/>
	<rect x="37.661" y="117.195" style="fill:#FFFFFF;" width="436.654" height="225.907"/>
	<path style="fill:#CBB482;" d="M512,186.661v265.681c0,15.726-12.912,28.637-28.636,28.637H28.643
		c-4.553,0-8.94-1.076-12.747-3.062c-5.628-2.814-10.18-7.366-12.912-12.912c-1.49-2.897-2.4-6.125-2.814-9.518
		c-0.083-0.993-0.166-2.069-0.166-3.145v-160.65l37.659-37.659l3.311-3.311l64.062-64.061H512z"/>
	<path style="fill:#B19A74;" d="M268.997,186.661l-72.09,72.09l-84.339,84.339l-84.505,84.505L0.17,455.487
		c-0.083-0.993-0.166-2.069-0.166-3.145v-160.65l37.659-37.659l3.311-3.311l64.062-64.061H268.997z"/>
	<polygon style="fill:#FBE8BE;" points="104.999,186.665 0,291.663 104.999,291.663 	"/>
	<rect x="304.62" y="394.011" style="fill:#ECE4D9;" width="169.696" height="57.272"/>
</g>
</svg>