<?xml version="1.0" encoding="utf-8"?>
<!-- Generator: Adobe Illustrator 27.5.0, SVG Export Plug-In . SVG Version: 6.00 Build 0)  -->
<svg version="1.1" xmlns="http://www.w3.org/2000/svg" xmlns:xlink="http://www.w3.org/1999/xlink" x="0px" y="0px"
	 viewBox="0 0 2200 2200" style="enable-background:new 0 0 2200 2200;" xml:space="preserve">

<g id="Objects">
	<g>
		<g>
			<path style="fill:#E3F4FC;" d="M1434.38,1880.687H765.62c-71.273,0-129.051-57.778-129.051-129.051V288.637
				c0-71.273,57.778-129.051,129.051-129.051h668.759c71.273,0,129.051,57.778,129.051,129.051v1462.999
				C1563.43,1822.909,1505.652,1880.687,1434.38,1880.687z"/>
			<path style="fill:#CEE6EF;" d="M1563.43,288.637v1463.002c0,71.273-57.778,129.051-129.051,129.051H765.62
				c-61.078,0-112.256-42.439-125.631-99.434c129.207-66.397,248.81-151.515,353.35-252.396
				c192.866-186.1,333.937-425.333,403.449-684.181c59.363-221.018,66.858-451.843,69.623-681.083
				C1522.189,177.837,1563.43,228.416,1563.43,288.637z"/>
			<path style="fill:#262C44;" d="M1434.38,1899.122H765.62c-81.325,0-147.487-66.162-147.487-147.487V288.637
				c0-81.324,66.162-147.487,147.487-147.487h668.759c81.325,0,147.486,66.162,147.486,147.487v1462.999
				C1581.866,1832.96,1515.704,1899.122,1434.38,1899.122z M765.62,178.022c-60.993,0-110.615,49.622-110.615,110.615v1462.999
				c0,60.993,49.622,110.615,110.615,110.615h668.759c60.993,0,110.615-49.622,110.615-110.615V288.637
				c0-60.993-49.622-110.615-110.615-110.615H765.62z"/>
			<rect x="1562.739" y="433.819" style="fill:#262C44;" width="29.497" height="302.347"/>
			<rect x="607.764" y="433.819" style="fill:#262C44;" width="29.497" height="118.911"/>
			<rect x="607.764" y="603.428" style="fill:#262C44;" width="29.497" height="118.911"/>
			<path style="fill:#262C44;" d="M1204.23,304.345H995.77c-22.792,0-41.269-18.477-41.269-41.269v0
				c0-22.792,18.477-41.269,41.269-41.269h208.461c22.792,0,41.269,18.477,41.269,41.269v0
				C1245.499,285.868,1227.023,304.345,1204.23,304.345z"/>
			<circle cx="1204.208" cy="263.076" r="21.898"/>
			<circle style="fill:#181D2D;" cx="1204.208" cy="263.076" r="13.074"/>
			<path d="M1131.874,273.658h-122.517c-5.844,0-10.582-4.738-10.582-10.582s4.738-10.582,10.582-10.582h122.517
				c5.844,0,10.582,4.738,10.582,10.582S1137.718,273.658,1131.874,273.658z"/>
		</g>
	</g>
</g>
</svg>
