<?xml version="1.0" encoding="iso-8859-1"?>
<!-- Uploaded to: SVG Repo, www.svgrepo.com, Generator: SVG Repo Mixer Tools -->
<svg version="1.1" id="Layer_1" xmlns="http://www.w3.org/2000/svg" xmlns:xlink="http://www.w3.org/1999/xlink" 
	 viewBox="0 0 512 512" xml:space="preserve">
<path d="M355,512H157c-35.2,0-64-28.8-64-64V64c0-35.2,28.8-64,64-64h198c35.2,0,64,28.8,64,64v384C419,483.2,390.2,512,355,512z"/>
<rect x="118" y="60.416" style="fill:#FFFFFF;" width="280" height="376.96"/>
<g>
	<circle style="fill:#CCCCCC;" cx="256" cy="30.176" r="12"/>
	<path style="fill:#CCCCCC;" d="M283.128,488.272h-54.264c-7.496,0-13.568-6.064-13.568-13.568c0-7.496,6.064-13.568,13.568-13.568
		h54.264c7.496,0,13.568,6.064,13.568,13.568C296.696,482.208,290.632,488.272,283.128,488.272z"/>
</g>
<g>
	<rect x="151.216" y="350.296" style="fill:#FF583E;" width="209.6" height="8"/>
	<rect x="174.464" y="377.2" style="fill:#FF583E;" width="163.064" height="8"/>
</g>
<rect x="160" y="112.56" style="fill:#13B7E6;" width="192" height="192"/>
<path style="fill:#FFFFFF;" d="M307.16,271.032c-7.112,3.976-19.248,7.944-32.632,7.944c-20.504,0-39.32-8.376-51.04-23.848
	c-5.656-7.112-9.832-16.104-11.72-27.192h-13.6v-14.864h11.504c0-1.04,0-2.304,0-3.56c0-2.088,0.216-4.176,0.216-6.272H198.16V188.4
	h14.016c2.712-11.304,7.744-20.92,14.432-28.664c11.928-13.392,28.664-21.336,48.328-21.336c12.76,0,23.848,2.928,31.376,6.272
	l-5.856,23.848c-5.432-2.304-14-5.032-23.216-5.032c-10.032,0-19.248,3.36-25.72,11.304c-2.928,3.344-5.232,8.16-6.704,13.6h52.096
	v14.848h-55.24c-0.2,2.104-0.2,4.4-0.2,6.488c0,1.256,0,2.088,0,3.344h55.44v14.864H244.4c1.456,6.272,3.76,11.088,6.904,14.648
	c6.688,7.528,16.536,10.656,26.992,10.656c9.616,0,19.448-3.128,23.848-5.432L307.16,271.032z"/>
</svg>